<svg id="Camada_1" data-name="Camada 1" xmlns="http://www.w3.org/2000/svg" viewBox="0 0 1172 1172"><defs><style>.cls-1{fill:gray;}.cls-2{fill:none;stroke:#213250;stroke-miterlimit:10;stroke-width:9px;}.cls-3{fill:#00bbdf;}.cls-4{fill:#fff;}.cls-5{font-size:300px;fill:#213250;font-family:AgencyFB-Reg, Agency FB;}</style></defs><title>LG2</title><circle class="cls-1" cx="586" cy="586" r="586"/><path class="cls-2" d="M936,573.1c69.09,2.24,141.54-.6,210.54-.6,21.79,0,53.84,5.7,70,12,33.11,12.9,50.5,47.13,57,82.06s-6.61,72.88-33.34,96.3c-33.33,29.21-81,33.83-125.32,35.6q-62.34,2.49-124.76,1.06c-70.75-1.63-213.91-1-261.23.82-3.84.15-14.71,1.45-22.37,4.16-9.86,3.49-17,9.09-24,15-15.13,12.7-27.21,35.64-31,45-5.11,12.63-12,51.79-1,82s39.92,51.28,46.41,55c8.59,5,35.59,17.05,43.91,18.65,17.31,3.33,35.07,3.29,52.69,3.24,81.5-.24,174.49.32,256,.08" transform="translate(-365 -349)"/><rect class="cls-3" x="459.5" y="172.5" width="125" height="101.5"/><rect class="cls-3" x="418" y="185" width="71" height="79"/><polygon class="cls-4" points="461 193 424 193 424 256 459 256 459 246 444 246 444 234 459.13 233.63 459 216 444 216 444 204 461 204 461 193"/><polygon class="cls-3" points="757 709 674 709 674 623 757 623 757 640.5 785 640 785 692 769 692 757 692 757 709"/><rect class="cls-4" x="757" y="650" width="18" height="31"/><text class="cls-5" transform="translate(474 1010.2)">LG</text></svg>